<?xml version="1.0" encoding="UTF-8"?>
<svg id="Layer_1" data-name="Layer 1" xmlns="http://www.w3.org/2000/svg" viewBox="0 0 291 173">
  <defs>
    <style>
      .cls-1 {
        fill: #fff;
      }
    </style>
  </defs>
  <path d="M115.08,42.16v96.7h58c0,3.3,.03,6.09,0,8.88-.07,4.65-2.63,7.24-7.11,7.28-15.99,.14-31.99,.13-47.98,0-4.3-.04-6.59-2.74-7-6.99-.1-.99-.03-2-.03-3,0-35.51,0-71.02,0-106.52,0-7.99,2-10.02,10.03-10.04,14.16-.04,28.33-.05,42.49,0,7.9,.03,9.62,1.84,9.63,9.79,0,4.33,.11,8.67-.09,13-.04,.92-1.2,1.79-1.84,2.68-.51-.88-1.33-1.7-1.47-2.63-.45-2.89,.38-7.24-1.2-8.38-2.13-1.54-6.04-.72-9.18-.73-12.83-.04-25.66-.02-38.49-.02-1.8,0-3.6,0-5.74,0Zm27.52,99.23c-2.67,2.54-4.31,4.09-5.95,5.65,1.62,1.25,3.3,3.57,4.85,3.48,2.11-.12,4.12-2.07,6.18-3.24-1.39-1.61-2.77-3.22-5.08-5.89Zm-10.53-107.13c0,.34,.01,.67,.02,1.01h20.14c0-.34-.02-.67-.03-1.01h-20.14Z"/>
  <path d="M116.55,119.05c1.49-.56,2.97-1.6,4.46-1.61,16.16-.12,32.36-.79,48.45,.26,6.81,.44,9.74-4.28,14.53-6.4,.43-.19,.43-1.51,.5-2.32,.08-.99,.03-2,.03-3,0-4.82,0-9.65,0-12.77-2.59-2.95-4-5.04-5.88-6.52-1.22-.97-3.13-1.48-4.74-1.49-17.16-.1-34.32-.06-51.47-.07-1.17,0-2.38,.17-3.48-.09-.76-.18-1.39-.97-2.07-1.49,.64-.55,1.25-1.14,1.94-1.63,.23-.16,.65-.04,.98-.04,22.48,0,44.96,0,67.83,0v38.68H117.08c-.18-.51-.36-1.01-.53-1.52Z"/>
  <path d="M147.37,116.13c-8.04-.02-14.2-6.49-14.16-14.87,.04-8.15,6.63-15.13,14.24-15.11,7.66,.03,14.13,7,14.12,15.2,0,8.4-6.16,14.8-14.21,14.78Zm5.33-22.15c-.13-.35-.26-.7-.39-1.05-3.02,.14-6.04,.27-9.06,.41,0,.4,0,.8,0,1.2,1.16,.28,2.32,.56,4.24,1.03-1.94,.82-3.14,1.33-5.59,2.37,2.77,.54,4.26,.83,6.93,1.35-2.58,1.14-4.12,1.83-6.26,2.78,2.55,3.46,3.47,7.84,8.6,8.87-1.45-2.47-2.91-4.95-4.13-7.03,2.08-2.36,3.89-4.41,5.75-6.53-.8-.64-1.42-1.13-2.16-1.72,.73-.59,1.41-1.14,2.08-1.68Z"/>
  <path d="M208.7,130.13c-5.39,3.11-10.07,5.82-13.27,7.67-3-1.28-4.64-2.55-6.31-2.6-8.46-.21-16.92-.1-25.67-.1v-10.15c8.79,0,17.4,.1,26.01-.09,1.57-.03,3.1-1.25,5.91-2.46,3.35,1.94,8.02,4.65,13.33,7.73Z"/>
  <path d="M150.31,70.38c-2.88-1.66-7.33-4.23-12.63-7.28,5.08-2.96,9.69-5.63,12.95-7.53,3.06,1.11,4.81,2.26,6.59,2.3,8.44,.2,16.9,.09,25.6,.09v10.1c-7.97,0-16.04-.15-24.1,.09-2.39,.07-4.75,1.23-8.41,2.24Z"/>
  <path d="M195.81,74.06v39.04c-.25,0-.51,0-.76,0v-38.03H117.75c0-.34,0-.68,.01-1.02h78.05Z"/>
  <path d="M193.02,76.96v38.27c-.26,0-.52,.01-.77,.02v-37.19H117.76c0-.37,0-.73,0-1.1h75.26Z"/>
  <path d="M117.83,79.13h72.73v38.61c-.26,0-.53,.02-.79,.03v-37.33H117.63c.07-.44,.14-.87,.2-1.31Z"/>
  <path d="M122.76,105.42c-1.4-2.03-2.92-3.26-2.82-4.33,.11-1.15,1.74-2.15,2.71-3.22,1.12,1.1,2.81,2.05,3.14,3.35,.22,.85-1.52,2.21-3.04,4.2Z"/>
  <path d="M172.29,96.55c1.32,2.09,2.77,3.39,2.63,4.47-.15,1.13-1.84,2.06-2.85,3.07-1.07-1.13-2.74-2.15-2.99-3.44-.17-.89,1.61-2.17,3.21-4.1Z"/>
  <path class="cls-1" d="M142.6,141.39c2.31,2.67,3.69,4.28,5.08,5.89-2.05,1.17-4.06,3.12-6.18,3.24-1.54,.09-3.23-2.23-4.85-3.48,1.64-1.56,3.28-3.12,5.95-5.65Z"/>
  <path class="cls-1" d="M132.07,34.25h20.14c0,.34,.02,.67,.03,1.01h-20.14c0-.34-.01-.67-.02-1.01Z"/>
  <path class="cls-1" d="M152.7,93.98c-.67,.55-1.35,1.09-2.08,1.68,.74,.59,1.35,1.08,2.16,1.72-1.86,2.12-3.67,4.17-5.75,6.53,1.23,2.09,2.68,4.56,4.13,7.03-5.12-1.03-6.05-5.41-8.6-8.87,2.15-.95,3.69-1.64,6.26-2.78-2.68-.52-4.16-.81-6.93-1.35,2.45-1.04,3.65-1.55,5.59-2.37-1.92-.47-3.08-.75-4.24-1.03,0-.4,0-.8,0-1.2,3.02-.14,6.04-.27,9.06-.41,.13,.35,.26,.7,.39,1.05Z"/>
</svg>